<svg width="24" height="24" viewBox="0 0 24 24" fill="none" xmlns="http://www.w3.org/2000/svg">
<path d="M17.5401 8.31C18.8987 8.31 20.0001 7.20862 20.0001 5.85C20.0001 4.49138 18.8987 3.39 17.5401 3.39C16.1814 3.39 15.0801 4.49138 15.0801 5.85C15.0801 7.20862 16.1814 8.31 17.5401 8.31Z" stroke="#292D32" stroke-width="1.5" stroke-miterlimit="10" stroke-linecap="round" stroke-linejoin="round"/>
<path d="M6.46001 8.31C7.81863 8.31 8.92 7.20862 8.92 5.85C8.92 4.49138 7.81863 3.39 6.46001 3.39C5.10139 3.39 4 4.49138 4 5.85C4 7.20862 5.10139 8.31 6.46001 8.31Z" stroke="#292D32" stroke-width="1.5" stroke-miterlimit="10" stroke-linecap="round" stroke-linejoin="round"/>
<path d="M17.5401 20.61C18.8987 20.61 20.0001 19.5086 20.0001 18.15C20.0001 16.7914 18.8987 15.69 17.5401 15.69C16.1814 15.69 15.0801 16.7914 15.0801 18.15C15.0801 19.5086 16.1814 20.61 17.5401 20.61Z" stroke="#292D32" stroke-width="1.5" stroke-miterlimit="10" stroke-linecap="round" stroke-linejoin="round"/>
<path d="M6.46001 20.61C7.81863 20.61 8.92 19.5086 8.92 18.15C8.92 16.7914 7.81863 15.69 6.46001 15.69C5.10139 15.69 4 16.7914 4 18.15C4 19.5086 5.10139 20.61 6.46001 20.61Z" stroke="#292D32" stroke-width="1.5" stroke-miterlimit="10" stroke-linecap="round" stroke-linejoin="round"/>
</svg>
